<?xml version="1.0" standalone="no"?>
<!DOCTYPE svg PUBLIC "-//W3C//DTD SVG 1.1//EN" "http://www.w3.org/Graphics/SVG/1.1/DTD/svg11.dtd" >
<svg xmlns="http://www.w3.org/2000/svg">
<metadata>Generated by IcoMoon</metadata>
<defs>
<font id="dr-icons" horiz-adv-x="1024">
<font-face units-per-em="1024" ascent="960" descent="-64" />
<missing-glyph horiz-adv-x="1024" />
<glyph unicode="&#x20;" horiz-adv-x="512" d="" />
<glyph unicode="&#xe900;" glyph-name="arrow-right" d="M404.039 641.294c11.361 11.361 29.138 12.393 41.666 3.098l3.589-3.098 170.667-170.667c11.361-11.361 12.393-29.138 3.098-41.666l-3.098-3.589-170.667-170.667c-12.497-12.497-32.758-12.497-45.255 0-11.361 11.361-12.393 29.138-3.098 41.666l3.098 3.589 148.025 148.039-148.025 148.039c-11.361 11.361-12.393 29.138-3.098 41.666l3.098 3.589z" />
<glyph unicode="&#xe901;" glyph-name="arrow-left" d="M574.706 641.294c12.497 12.497 32.758 12.497 45.255 0 11.361-11.361 12.393-29.138 3.098-41.666l-3.098-3.589-148.025-148.039 148.025-148.039c11.361-11.361 12.393-29.138 3.098-41.666l-3.098-3.589c-11.361-11.361-29.138-12.393-41.666-3.098l-3.589 3.098-170.667 170.667c-11.361 11.361-12.393 29.138-3.098 41.666l3.098 3.589 170.667 170.667z" />
<glyph unicode="&#xe902;" glyph-name="arrow-down" d="M318.706 555.961c11.361 11.361 29.138 12.393 41.666 3.098l3.589-3.098 148.039-148.025 148.039 148.025c11.361 11.361 29.138 12.393 41.666 3.098l3.589-3.098c11.361-11.361 12.393-29.138 3.098-41.666l-3.098-3.589-170.667-170.667c-11.361-11.361-29.138-12.393-41.666-3.098l-3.589 3.098-170.667 170.667c-12.497 12.497-12.497 32.758 0 45.255z" />
<glyph unicode="&#xe903;" glyph-name="closemark" d="M656.259 592.259c11.604-11.604 12.433-29.903 2.487-42.464l-2.487-2.791-243.267-243.267c-12.497-12.497-32.758-12.497-45.255 0-11.604 11.604-12.433 29.903-2.487 42.464l2.487 2.791 243.267 243.267c12.497 12.497 32.758 12.497 45.255 0zM656.263 348.992c12.497-12.497 12.497-32.758 0-45.255-11.604-11.604-29.903-12.433-42.464-2.487l-2.791 2.487-243.267 243.267c-12.497 12.497-12.497 32.758 0 45.255 11.604 11.604 29.903 12.433 42.464 2.487l2.791-2.487 243.267-243.267zM512 864l-10.158-0.124c-225.687-5.627-405.842-190.062-405.842-415.876l0.124-10.158c5.627-225.687 190.062-405.842 415.876-405.842l10.158 0.124c225.687 5.627 405.842 190.062 405.842 415.876l-0.169 11.768c-3.127 106.472-46.626 207.341-121.674 282.389-78.015 78.015-183.826 121.844-294.156 121.844zM503.039 799.888l8.961 0.112c93.356 0 182.889-37.086 248.902-103.098 63.502-63.502 100.309-148.853 102.946-238.544l0.156-10.827c0-190.598-152.447-346.664-343.042-351.418l-9.36-0.114c-190.67 0-346.735 152.446-351.49 343.041l-0.114 9.36c0 190.67 152.446 346.735 343.041 351.49z" />
<glyph unicode="&#xe904;" glyph-name="telegram" d="M845.827 720.572c13.984-11.919 20.766-30.145 18.134-48.165l-0.604-3.375-113.151-533.261c-4.145-19.546-17.939-35.645-36.617-42.738-17.512-6.65-37.066-4.529-52.689 5.544l-3.070 2.12-150.689 111.323-76.301-74.249c-12.14-11.829-29.571-16.466-45.984-12.234-15.387 3.968-27.788 15.193-33.314 29.93l-1.012 2.993-55.884 183.976-164.541 51.364c-17.12 5.331-28.99 20.915-29.58 38.836-0.557 16.926 9.061 32.433 24.221 39.531l2.732 1.164 664.683 256.382c18.212 7.031 38.813 3.522 53.67-9.142zM808.278 692.929l-1.72-0.533-664.696-256.387c-0.845-0.326-1.392-1.151-1.362-2.056 0.022-0.679 0.365-1.291 0.906-1.671l0.602-0.295 174.483-54.468c0.691-0.209 1.37-0.455 2.033-0.736l-1.891 0.692c0.758-0.237 1.492-0.514 2.2-0.83 0.502-0.219 0.993-0.462 1.474-0.725 0.149-0.088 0.307-0.177 0.464-0.268 0.408-0.23 0.801-0.477 1.185-0.737 0.153-0.115 0.311-0.226 0.467-0.339 2.915-2.087 5.283-4.979 6.743-8.469l0.693-1.927 58.951-194.119c0.862-2.851 3.149-5.046 6.034-5.79 2.404-0.62 4.931-0.157 6.948 1.223l1.144 0.937 71.613 69.669-47.075 34.777c-13.611 9.977-22.007 25.551-22.86 42.406s5.926 33.197 18.449 44.489l167.83 151.462c8.201 7.399 20.848 6.749 28.247-1.452s6.749-20.848-1.452-28.247l-167.828-151.46c-3.596-3.243-5.542-7.932-5.297-12.768 0.21-4.145 2.010-8.021 5.017-10.874l1.602-1.338 230.412-170.221c5.13-3.788 11.834-4.709 17.796-2.445 5.299 2.012 9.367 6.296 11.135 11.606l0.553 2.037 113.153 533.269c1.007 4.738-0.663 9.647-4.349 12.789-3.226 2.749-7.542 3.76-11.602 2.799z" />
<glyph unicode="&#xe905;" glyph-name="instagram" d="M704.736 853.024h-385.408c-56.32 0.009-110.339-22.361-150.165-62.187s-62.196-93.845-62.187-150.168v-385.373c0-56.323 22.37-110.335 62.193-150.155 39.826-39.823 93.842-62.19 150.162-62.181h385.373c56.314 0 110.318 22.363 150.136 62.175 39.824 39.817 62.2 93.821 62.2 150.129v385.408c0.009 56.31-22.353 110.321-62.168 150.146-39.818 39.828-93.825 62.206-150.136 62.206zM319.325 813.024h385.411c45.7 0 89.531-18.162 121.848-50.487 32.314-32.322 50.464-76.158 50.456-121.862v-385.411c0-45.697-18.16-89.527-50.482-121.843-32.316-32.311-76.148-50.461-121.855-50.461h-385.376c-45.713-0.008-89.553 18.146-121.876 50.466-32.32 32.318-50.476 76.155-50.476 121.87v385.376c-0.008 45.715 18.148 89.557 50.471 121.881s76.165 50.479 121.877 50.471zM723.285 693.52c18.82-0.125 34.046-15.351 34.171-34.326-0.021-18.927-15.374-34.257-34.301-34.25s-34.268 15.348-34.275 34.275c-0.007 18.104 14.019 32.938 31.802 34.212l2.603 0.088zM511.992 620.374c45.714 0 89.556-18.161 121.879-50.489 67.301-67.31 67.297-176.433-0.010-243.737s-176.43-67.304-243.737 0c-67.307 67.304-67.312 176.427-0.010 243.737 32.323 32.327 76.165 50.489 121.879 50.489zM511.992 580.374c-35.105 0-68.772-13.947-93.593-38.771-51.682-51.688-51.678-135.486 0.008-187.17s135.484-51.684 187.17 0c50.609 50.607 51.667 132.004 3.171 183.898l-3.163 3.272-3.605 3.472c-24.426 22.649-56.554 35.299-89.988 35.299z" />
<glyph unicode="&#xe906;" glyph-name="calendar-2" d="M682.667 906.667c16.2 0 29.589-12.039 31.708-27.658l0.292-4.342v-53.333h96c62.401 0 113.425-48.713 117.119-110.186l0.214-7.148v-554.667c0-64.801-52.532-117.333-117.333-117.333v0h-597.333c-64.801 0-117.333 52.532-117.333 117.333v0 554.667c0 64.801 52.532 117.333 117.333 117.333v0h96v53.333c0 17.673 14.327 32 32 32 16.2 0 29.589-12.039 31.708-27.658l0.292-4.342v-53.333h277.333v53.333c0 17.673 14.327 32 32 32zM864 544h-704v-394.667c0-27.614 20.987-50.327 47.88-53.058l5.453-0.275h597.333c29.455 0 53.333 23.878 53.333 53.333v0 394.667zM298.964 278.228l5.649-0.33c7.453-0.935 14.531-3.825 20.508-8.374l4.265-3.718c8.073-8.041 12.59-18.978 12.545-30.243 0-23.542-19.068-42.635-42.61-42.667s-42.66 19.011-42.723 42.553c-0.058 21.86 16.335 39.929 37.526 42.474l4.841 0.306zM512.297 278.228l5.649-0.33c7.453-0.935 14.531-3.825 20.508-8.374l4.265-3.718c8.073-8.041 12.59-18.978 12.545-30.243 0-23.542-19.068-42.635-42.61-42.667s-42.66 19.011-42.723 42.553c-0.058 21.86 16.335 39.929 37.526 42.474l4.841 0.306zM512.297 448.895l5.649-0.33c7.453-0.935 14.531-3.825 20.508-8.374l4.265-3.718c8.073-8.041 12.59-18.978 12.544-30.243 0-23.542-19.068-42.635-42.61-42.667s-42.66 19.011-42.723 42.553c-0.058 21.86 16.335 39.929 37.526 42.474l4.841 0.306zM725.631 448.895l5.649-0.33c7.453-0.935 14.531-3.825 20.508-8.374l4.265-3.718c8.073-8.041 12.59-18.978 12.545-30.243 0-23.542-19.068-42.635-42.61-42.667s-42.66 19.011-42.723 42.553c-0.058 21.86 16.335 39.929 37.526 42.474l4.841 0.306zM309.333 757.333h-96c-29.455 0-53.333-23.878-53.333-53.333v0-96h704v96c0 27.614-20.987 50.327-47.88 53.058l-5.453 0.275h-96v-53.333c0-17.673-14.327-32-32-32-16.2 0-29.589 12.039-31.708 27.658l-0.292 4.342v53.333h-277.333v-53.333c0-17.673-14.327-32-32-32-16.2 0-29.589 12.039-31.708 27.658l-0.292 4.342v53.333z" />
<glyph unicode="&#xe907;" glyph-name="calendar" d="M682.667 906.667c16.2 0 29.589-12.039 31.708-27.658l0.292-4.342v-53.333h96c62.401 0 113.425-48.713 117.119-110.186l0.214-7.148v-554.667c0-64.801-52.532-117.333-117.333-117.333v0h-597.333c-64.801 0-117.333 52.532-117.333 117.333v0 554.667c0 64.801 52.532 117.333 117.333 117.333v0h96v53.333c0 17.673 14.327 32 32 32 16.2 0 29.589-12.039 31.708-27.658l0.292-4.342v-53.333h277.333v53.333c0 17.673 14.327 32 32 32zM864 544h-704v-394.667c0-27.614 20.987-50.327 47.88-53.058l5.453-0.275h597.333c29.455 0 53.333 23.878 53.333 53.333v0 394.667zM725.333 266.667c17.673 0 32-14.327 32-32 0-16.2-12.039-29.589-27.658-31.708l-4.342-0.292h-426.667c-17.673 0-32 14.327-32 32 0 16.2 12.039 29.589 27.658 31.708l4.342 0.292h426.667zM725.333 437.333c17.673 0 32-14.327 32-32 0-16.2-12.039-29.589-27.658-31.708l-4.342-0.292h-426.667c-17.673 0-32 14.327-32 32 0 16.2 12.039 29.589 27.658 31.708l4.342 0.292h426.667zM309.333 757.333h-96c-29.455 0-53.333-23.878-53.333-53.333v0-96h704v96c0 27.614-20.987 50.327-47.88 53.058l-5.453 0.275h-96v-53.333c0-17.673-14.327-32-32-32-16.2 0-29.589 12.039-31.708 27.658l-0.292 4.342v53.333h-277.333v-53.333c0-17.673-14.327-32-32-32-16.2 0-29.589 12.039-31.708 27.658l-0.292 4.342v53.333z" />
<glyph unicode="&#xe908;" glyph-name="phone-waiting" d="M172.018 767.801c45.819 45.819 120.097 45.819 165.916 0v0l50.048-50.048c38.311-38.311 36.674-99.077-3.627-139.378v0l-35.153-35.081 7.366-15.94c23.813-48.746 57.048-95.203 98.306-136.461 45.865-45.826 98.182-81.807 152.861-105.958v0l-0.396 0.214 38.644 38.771c37.458 37.522 98.267 37.522 135.77 0.019v0l50.048-50.048c45.819-45.819 45.819-120.097 0-165.916v0l-27.776-27.776c-39.042-39.042-95.302-55.596-151.025-45.082-122.026 23.070-249.106 93.527-354.731 199.152s-176.082 232.705-199.154 354.742c-10.512 55.711 6.042 111.972 45.084 151.014v0zM292.679 722.546c-20.826 20.826-54.581 20.826-75.424-0.017v0l-27.819-27.776c-23.838-23.838-34.079-58.644-27.434-93.864 20.591-108.917 84.698-224.542 181.52-321.365s212.448-160.929 321.354-181.518c35.231-6.647 70.038 3.594 93.893 27.449v0l27.776 27.776c20.826 20.826 20.826 54.581 0 75.406v0l-50.048 50.048c-12.503 12.503-32.76 12.503-45.229 0.013v0l-38.541-38.583c-18.568-18.568-46.694-24.383-70.842-13.727-61.952 27.363-120.829 67.856-172.258 119.242-51.42 51.42-91.881 110.261-119.242 172.313-10.556 24.116-4.774 52.201 13.77 70.744v0l34.944 34.944c15.837 15.837 16.383 36.112 3.627 48.868v0zM868.639 804.64c79.146-79.146 79.146-207.468 0-286.614s-207.468-79.146-286.614 0c-79.146 79.146-79.146 207.468 0 286.614s207.468 79.146 286.614 0zM627.28 759.386c-54.153-54.152-54.153-141.951 0-196.104s141.951-54.153 196.104 0c52.147 52.147 54.078 135.494 5.794 189.952l-5.794 6.152-6.152 5.794c-54.458 48.284-137.805 46.353-189.952-5.794zM709.077 757.333c16.2 0 29.589-12.039 31.708-27.658l0.292-4.342v-32h32c16.2 0 29.589-12.039 31.708-27.658l0.292-4.342c0-16.2-12.039-29.589-27.658-31.708l-4.342-0.292h-64c-16.2 0-29.589 12.039-31.708 27.658l-0.292 4.342v64c0 17.673 14.327 32 32 32z" />
<glyph unicode="&#xe909;" glyph-name="checkmark" d="M512 864l-10.158-0.124c-225.687-5.627-405.842-190.062-405.842-415.876l0.124-10.158c5.627-225.687 190.062-405.842 415.876-405.842l10.158 0.124c225.687 5.627 405.842 190.062 405.842 415.876l-0.169 11.768c-3.127 106.472-46.626 207.341-121.674 282.389-78.015 78.015-183.826 121.844-294.156 121.844zM503.039 799.888l8.961 0.112c93.356 0 182.889-37.086 248.902-103.098 63.502-63.502 100.309-148.853 102.946-238.544l0.156-10.827c0-190.598-152.447-346.664-343.042-351.418l-9.36-0.114c-190.67 0-346.735 152.446-351.49 343.041l-0.114 9.36c0 190.67 152.446 346.735 343.041 351.49zM660.893 556.547c12.497 12.497 32.758 12.497 45.255 0 11.535-11.535 12.423-29.687 2.662-42.24l-2.662-3.015-214.4-214.4c-11.535-11.535-29.687-12.423-42.24-2.662l-3.015 2.662-128.64 128.64c-12.497 12.497-12.497 32.758 0 45.255 11.535 11.535 29.687 12.423 42.24 2.662l3.015-2.662 106.013-105.987 191.773 191.747z" />
<glyph unicode="&#xe90a;" glyph-name="clock" d="M365.166 837.129c152.51 57.62 325.221 20.849 441.088-94.998 118.999-118.978 154.599-297.929 90.197-453.392s-216.119-256.816-384.394-256.79c-168.275 0.027-319.96 101.428-384.312 256.912-86.29 208.49 9.455 446.928 214.039 538.618l11.064 4.771 12.32 4.879zM761.003 696.872c-100.691 100.674-252.116 130.771-383.653 76.254-179.528-74.407-264.79-280.226-190.471-459.79 54.452-131.563 182.801-217.365 325.187-217.387s270.763 85.738 325.257 217.284c54.494 131.546 24.371 282.966-76.32 383.64zM499.968 651.307c16.2 0 29.589-12.039 31.708-27.658l0.292-4.342v-180.437l140.647-85.787c13.832-8.433 18.997-25.682 12.675-40.121l-2.011-3.86c-8.433-13.832-25.682-18.997-40.121-12.675l-3.86 2.011-155.989 95.104c-8.167 4.979-13.605 13.297-14.992 22.6l-0.35 4.722v198.443c0 17.673 14.327 32 32 32z" />
<glyph unicode="&#xe90b;" glyph-name="close" d="M709.959 676.707c12.497 12.497 32.758 12.497 45.255 0 11.361-11.361 12.393-29.138 3.098-41.666l-3.098-3.589-426.667-426.667c-12.497-12.497-32.758-12.497-45.255 0-11.361 11.361-12.393 29.138-3.098 41.666l3.098 3.589 426.667 426.667zM283.293 676.707c11.361 11.361 29.138 12.393 41.666 3.098l3.589-3.098 426.667-426.667c12.497-12.497 12.497-32.758 0-45.255-11.361-11.361-29.138-12.393-41.666-3.098l-3.589 3.098-426.667 426.667c-12.497 12.497-12.497 32.758 0 45.255z" />
<glyph unicode="&#xe90c;" glyph-name="description" d="M585.28 880c21.466-0.024 41.706-9.861 54.934-26.659v0l39.942-50.589h59.991c28.761-0.132 56.289-11.694 76.519-32.137 18.544-18.739 29.561-43.531 31.14-69.543l0.197-7.121v-536.998c0.165-28.76-11.107-56.407-31.337-76.849-18.544-18.74-43.221-30.016-69.471-31.867l-7.195-0.27h-456.147c-28.761 0.132-56.289 11.694-76.519 32.137-18.544 18.739-29.561 43.531-31.14 69.543l-0.197 7.121v536.998c-0.165 28.76 11.107 56.407 31.337 76.849 18.544 18.74 43.221 30.016 69.471 31.867l7.195 0.27h59.772l40.016 50.55c12.042 15.291 29.842 24.81 49.112 26.446l5.821 0.252zM696.705 732.313c0.107-18.681-7.214-36.639-20.352-49.92s-31.017-20.796-49.858-20.889v0h-229.21c-18.671 0.109-36.535 7.631-49.66 20.91s-20.438 31.228-20.331 49.714v0l-0.003 6.624h-43.145c-11.773-0.054-23.041-4.786-31.322-13.155-7.246-7.322-11.685-16.903-12.635-27.195l-0.192-4.45-0.001-537.37c-0.068-11.774 4.546-23.092 12.827-31.46 7.098-7.173 16.391-11.674 26.222-12.848l4.953-0.306h455.853c11.773 0.054 23.041 4.786 31.322 13.155 7.246 7.322 11.685 16.903 12.635 27.195l0.192 4.45 0.001 537.37c0.068 11.774-4.546 23.092-12.827 31.46-7.098 7.173-16.391 11.674-26.222 12.848l-4.953 0.306h-43.3zM664.576 265.6c17.673 0 32-14.327 32-32 0-16.411-12.353-29.936-28.268-31.785l-3.732-0.215h-115.872c-17.673 0-32 14.327-32 32 0 16.411 12.353 29.936 28.268 31.785l3.732 0.215h115.872zM447.267 435.683c11.535-11.535 12.423-29.687 2.662-42.24l-2.662-3.015-64.384-64.384c-11.535-11.535-29.687-12.423-42.24-2.662l-3.015 2.662-38.624 38.624c-12.497 12.497-12.497 32.758 0 45.255 11.535 11.535 29.687 12.423 42.24 2.662l3.015-2.662 15.997-15.971 41.757 41.731c12.497 12.497 32.758 12.497 45.255 0zM664.576 419.2c17.673 0 32-14.327 32-32 0-16.411-12.353-29.936-28.268-31.785l-3.732-0.215h-115.872c-17.673 0-32 14.327-32 32 0 16.411 12.353 29.936 28.268 31.785l3.732 0.215h115.872zM447.267 589.187c11.535-11.535 12.423-29.687 2.662-42.24l-2.662-3.015-64.384-64.384c-11.535-11.535-29.687-12.423-42.24-2.662l-3.015 2.662-38.624 38.624c-12.497 12.497-12.497 32.758 0 45.255 11.535 11.535 29.687 12.423 42.24 2.662l3.015-2.662 15.997-15.971 41.757 41.731c12.497 12.497 32.758 12.497 45.255 0zM664.576 572.8c17.673 0 32-14.327 32-32 0-16.411-12.353-29.936-28.268-31.785l-3.732-0.215h-115.872c-17.673 0-32 14.327-32 32 0 16.411 12.353 29.936 28.268 31.785l3.732 0.215h115.872zM585.244 816h-146.461c-1.84-0.004-3.576-0.849-4.757-2.347v0l-42.762-54.037 0.031-27.673c-0.007-1.132 0.287-2.235 0.837-3.203v0l1.012-1.336c1.193-1.207 2.817-1.891 4.328-1.901v0h228.865c1.698 0.008 3.324 0.692 4.518 1.899s1.86 2.841 1.85 4.725v0 27.488l-42.741 54.090c-0.759 0.964-1.786 1.662-2.931 2.020v0l-1.789 0.274z" />
<glyph unicode="&#xe90d;" glyph-name="doctor" d="M475.776 721.067c0-17.673-14.327-32-32-32-16.2 0-29.589 12.039-31.708 27.658l-0.292 4.342-0.034 33.392c-0.006 0.247-0.008 0.494-0.008 0.742l0.043 0.725v33.408c0 17.673 14.327 32 32 32 16.2 0 29.589-12.039 31.708-27.658l0.292-4.342v-2.133h36.224c53.068 0 96.508-41.228 100.035-93.402l0.231-6.865v-136.533c0-84.6-45.134-162.775-118.4-205.075-27.045-15.614-56.406-25.465-86.373-29.552l0.016-12.925c0-90.722 73.545-164.267 164.267-164.267 84.42 0 153.967 63.682 163.221 145.629-18.274 5.325-35.466 15.193-49.852 29.577-45.82 45.814-45.83 120.097-0.022 165.923 22.006 22.015 51.857 34.383 82.984 34.383s60.978-12.368 82.984-34.383c45.808-45.826 45.798-120.109-0.022-165.923-14.914-14.912-32.843-24.97-51.825-30.175-9.767-117.067-107.877-209.031-227.467-209.031-122.916 0-223.142 97.152-228.076 218.858l-0.19 9.409-0.027 12.92c-29.982 4.083-59.358 13.936-86.416 29.558-70.213 40.538-114.59 114.022-118.166 194.535l-0.234 10.539v136.533c0 53.068 41.228 96.508 93.402 100.035l6.865 0.231h36.309v2.133c0 17.673 14.327 32 32 32 16.2 0 29.589-12.039 31.708-27.658l0.292-4.342v-68.267c0-17.673-14.327-32-32-32-16.2 0-29.589 12.039-31.708 27.658l-0.292 4.342v2.133h-36.309c-18.489 0-33.746-13.835-35.984-31.717l-0.283-4.549v-136.533c0-61.735 32.935-118.781 86.4-149.649s119.335-30.868 172.8 0c50.651 29.243 82.876 81.981 86.128 139.944l0.272 9.706v136.533c0 18.489-13.835 33.746-31.717 35.984l-4.549 0.283h-36.224v-2.133zM768.107 450.094c-14.149 0-27.717-5.622-37.72-15.629-20.822-20.83-20.817-54.595 0.010-75.42s54.592-20.825 75.42 0c19.439 19.436 20.739 50.145 3.897 71.089l-3.887 4.331-4.496 4.016c-9.395 7.482-21.096 11.612-33.224 11.612z" />
<glyph unicode="&#xe90e;" glyph-name="enter" d="M634.176 496c17.673 0 32-14.327 32-32 0-16.411-12.353-29.936-28.268-31.785l-3.732-0.215h-522.176c-17.673 0-32 14.327-32 32 0 16.411 12.353 29.936 28.268 31.785l3.732 0.215h522.176zM497.152 880c229.75 0 416-186.25 416-416s-186.25-416-416.061-416c-117.496 0.225-229.27 50.756-307.058 138.815-11.7 13.245-10.448 33.468 2.797 45.168s33.468 10.448 45.168-2.797c65.667-74.338 160.026-116.996 259.153-117.185 194.404 0 352 157.596 352 352s-157.596 352-351.939 352c-99.188-0.19-193.547-42.847-259.214-117.185-11.7-13.245-31.923-14.498-45.168-2.797s-14.498 31.923-2.797 45.168c77.788 88.059 189.562 138.59 307.119 138.815zM219.933 617.187c12.497 12.497 32.758 12.497 45.255 0 11.535-11.535 12.423-29.687 2.662-42.24l-2.662-3.015-107.907-107.933 107.907-107.933c11.535-11.535 12.423-29.687 2.662-42.24l-2.662-3.015c-11.535-11.535-29.687-12.423-42.24-2.662l-3.015 2.662-130.56 130.56c-11.535 11.535-12.423 29.687-2.662 42.24l2.662 3.015 130.56 130.56z" />
<glyph unicode="&#xe90f;" glyph-name="linkedin" d="M704.512 852.704h-384.864c-117.275-0.010-212.342-95.077-212.352-212.35v-384.866c0-117.182 94.994-212.176 212.176-212.176h385.040c117.161 0 212.147 94.962 212.176 212.123v385.093c0 117.182-94.994 212.176-212.176 212.176zM319.65 812.704h384.862c95.090 0 172.176-77.086 172.176-172.176v-385.088c-0.024-95.068-77.103-172.128-172.176-172.128h-385.040c-95.090 0-172.176 77.086-172.176 172.176v384.864c0.008 95.183 77.169 172.344 172.354 172.352zM346.448 501.648c8.205 0 14.968-6.177 15.892-14.134l0.108-1.866v-229.152c0-8.837-7.163-16-16-16-8.205 0-14.968 6.177-15.892 14.134l-0.108 1.866v229.152c0 8.837 7.163 16 16 16zM595.549 502.128c29.566 0.005 57.923-11.738 78.83-32.645 19.745-19.745 31.317-46.136 32.537-73.912l0.108-4.915v-133.664c0-8.837-7.163-16-16-16-8.205 0-14.968 6.177-15.892 14.134l-0.108 1.866v133.667c0.004 21.078-8.368 41.293-23.272 56.197s-35.12 23.276-56.203 23.272c-21.078 0.004-41.293-8.368-56.197-23.272-13.911-13.911-22.13-32.448-23.162-51.997l-0.11-4.203v-133.68c0-8.837-7.163-16-16-16-8.205 0-14.968 6.177-15.892 14.134l-0.108 1.866v133.677c-0.005 29.566 11.738 57.923 32.645 78.83s49.264 32.65 78.825 32.645zM347.118 640.543l2.555-0.102c5.074-0.458 9.897-2.428 13.842-5.651l1.896-1.715c4.846-4.846 7.538-11.439 7.469-18.131 0-14.138-11.462-25.6-25.6-25.6s-25.6 11.462-25.6 25.6c0 13.353 10.223 24.318 23.27 25.495l2.168 0.104z" />
<glyph unicode="&#xe910;" glyph-name="loading" d="M512 864c16.2 0 29.589-12.039 31.708-27.658l0.292-4.342v-153.6c0-17.673-14.327-32-32-32-16.2 0-29.589 12.039-31.708 27.658l-0.292 4.342v153.6c0 17.673 14.327 32 32 32zM512 249.6c16.2 0 29.589-12.039 31.708-27.658l0.292-4.342v-153.6c0-17.673-14.327-32-32-32-16.2 0-29.589 12.039-31.708 27.658l-0.292 4.342v153.6c0 17.673 14.327 32 32 32zM218.013 741.987c11.361 11.361 29.138 12.393 41.666 3.098l3.589-3.098 108.373-108.373c12.497-12.497 12.497-32.758 0-45.255-11.361-11.361-29.138-12.393-41.666-3.098l-3.589 3.098-108.373 108.373c-12.497 12.497-12.497 32.758 0 45.255zM652.359 307.641c11.361 11.361 29.138 12.393 41.666 3.098l3.589-3.098 108.373-108.373c12.497-12.497 12.497-32.758 0-45.255-11.361-11.361-29.138-12.393-41.666-3.098l-3.589 3.098-108.373 108.373c-12.497 12.497-12.497 32.758 0 45.255zM281.6 480c17.673 0 32-14.327 32-32 0-16.2-12.039-29.589-27.658-31.708l-4.342-0.292h-153.6c-17.673 0-32 14.327-32 32 0 16.2 12.039 29.589 27.658 31.708l4.342 0.292h153.6zM896 480c17.673 0 32-14.327 32-32 0-16.2-12.039-29.589-27.658-31.708l-4.342-0.292h-153.6c-17.673 0-32 14.327-32 32 0 16.2 12.039 29.589 27.658 31.708l4.342 0.292h153.6zM326.386 307.641c12.497 12.497 32.758 12.497 45.255 0 11.361-11.361 12.393-29.138 3.098-41.666l-3.098-3.589-108.373-108.373c-12.497-12.497-32.758-12.497-45.255 0-11.361 11.361-12.393 29.138-3.098 41.666l3.098 3.589 108.373 108.373zM760.733 741.987c12.497 12.497 32.758 12.497 45.255 0 11.361-11.361 12.393-29.138 3.098-41.666l-3.098-3.589-108.373-108.373c-12.497-12.497-32.758-12.497-45.255 0-11.361 11.361-12.393 29.138-3.098 41.666l3.098 3.589 108.373 108.373z" />
<glyph unicode="&#xe911;" glyph-name="money" d="M853.333 764.459c64.801 0 117.333-52.532 117.333-117.333v0-398.192c0.016-31.129-12.339-60.988-34.345-83.005s-51.859-34.387-82.988-34.387v0h-682.667c-64.801 0-117.333 52.532-117.333 117.333v0 398.251c0 64.801 52.532 117.333 117.333 117.333v0zM139.774 306.646l-22.44-0.001v-57.771c0-27.614 20.987-50.327 47.88-53.058l5.453-0.275h72.277l0.028 10.445c-2.312 55.535-47.33 99.232-103.198 100.66zM781.562 214.042l-0.506-6.725v-11.776h72.277c12.128 0 23.83 4.131 33.225 11.613l4.497 4.017c10.003 10.008 15.612 23.58 15.612 37.746v0 57.728l-16.626-0.019c-55.543 2.124-102.69-39.266-108.479-92.584zM717.056 700.459h-410.155l0.015-13.107c-3.754-90.172-77.481-160.945-165.609-162.065l-8.572 0.111h-15.403v-154.795l14.18-0.023c90.184 3.449 166.611-64.399 174.848-154.477l0.582-8.785-0.043-11.776h410.155l0.028 13.107c3.754 90.172 77.481 160.945 165.609 162.065l8.572-0.111h15.403v154.837l-14.18-0.019c-90.184-3.449-166.611 64.399-174.848 154.477l-0.582 8.785v11.776zM512 586.687c36.783 0 72.059-14.615 98.065-40.627 54.142-54.156 54.134-141.949-0.017-196.096s-141.944-54.147-196.096 0c-54.152 54.147-54.159 141.939-0.017 196.096 26.006 26.013 61.282 40.627 98.065 40.627zM512 522.687c-19.806 0-38.801-7.869-52.804-21.876-29.153-29.161-29.149-76.434 0.009-105.59s76.431-29.156 105.59 0c27.443 27.441 29.061 70.93 4.851 100.263l-4.842 5.327-5.477 4.962c-13.288 10.89-29.997 16.915-47.327 16.915zM242.901 700.459h-72.235c-29.455 0-53.333-23.878-53.333-53.333v0-57.728l16.626-0.023c55.543-2.124 102.69 39.266 108.479 92.584l0.506 6.725-0.043 11.776zM853.333 700.459h-72.32l0.015-10.445c2.312-55.535 47.33-99.232 103.198-100.66l22.44 0.001v57.771c0 27.614-20.987 50.327-47.88 53.058l-5.453 0.275z" />
<glyph unicode="&#xe912;" glyph-name="payment" d="M710.112 863.939c31.776 0 62.344-11.722 85.921-32.77l5.314-5.022 33.245-33.212c3.579-1.556 6.932-3.797 9.859-6.724s5.168-6.279 6.724-9.859l103.035-103.069c24.198-24.197 37.792-57.016 37.792-91.236 0-31.776-11.722-62.344-32.77-85.921l-5.022-5.314-209.027-209.021 166.313-0.004c41.968 0.66 76.84-31.423 80.243-73.162l0.26-5.266v-93.273c-0.314-21.032-8.972-41.079-24.071-55.724s-35.399-22.689-55.929-22.363v0l-767.497 0.004c-43.737-0.687-79.763 34.186-80.503 78.46v0 93.294c0.329 21.023 8.993 41.056 24.090 55.689s35.39 22.67 55.91 22.344v0h240.896l-63.843 63.932c-24.198 24.197-37.792 57.016-37.792 91.236 0 31.776 11.722 62.344 32.766 85.917l5.021 5.313 297.828 297.956c24.197 24.198 57.016 37.792 91.236 37.792zM912.503 217.796h-769.005c-4.048 0.064-7.956-1.484-10.863-4.302s-4.576-6.676-4.639-10.23v0-92.262c0.142-8.422 7.079-15.138 16.005-15.002v0l768.502-0.004c4.050-0.064 7.96 1.485 10.867 4.306s4.575 6.681 4.636 10.258v0 92.241c-0.147 8.418-7.083 15.128-15.502 14.995v0zM820.224 716.736l-389.888-389.888 44.992-45.056h179.296l254.333 254.276c12.195 12.194 19.046 28.734 19.046 45.98 0 15.33-5.413 30.101-15.182 41.76l-3.865 4.221-88.733 88.707zM710.112 799.939c-15.33 0-30.101-5.413-41.756-15.178l-4.219-3.864-297.829-297.957c-12.195-12.194-19.046-28.734-19.046-45.98 0-15.33 5.413-30.101 15.192-41.77l3.87-4.225 18.765-18.804 389.856 389.856-18.852 18.877c-12.194 12.195-28.734 19.046-45.98 19.046zM144.512 576c17.673 0 32-14.327 32-32 0-16.411-12.353-29.936-28.268-31.785l-3.732-0.215h-48.512c-17.673 0-32 14.327-32 32 0 16.411 12.353 29.936 28.268 31.785l3.732 0.215h48.512zM241.536 718.464c17.673 0 32-14.327 32-32 0-16.411-12.353-29.936-28.268-31.785l-3.732-0.215h-145.536c-17.673 0-32 14.327-32 32 0 16.411 12.353 29.936 28.268 31.785l3.732 0.215h145.536zM338.592 864c17.673 0 32-14.327 32-32 0-16.411-12.353-29.936-28.268-31.785l-3.732-0.215h-242.592c-17.673 0-32 14.327-32 32 0 16.411 12.353 29.936 28.268 31.785l3.732 0.215h242.592z" />
<glyph unicode="&#xe913;" glyph-name="sort" d="M853.333 650.667c17.673 0 32-14.327 32-32 0-16.2-12.039-29.589-27.658-31.708l-4.342-0.292h-682.667c-17.673 0-32 14.327-32 32 0 16.2 12.039 29.589 27.658 31.708l4.342 0.292h682.667zM682.667 480c17.673 0 32-14.327 32-32 0-16.2-12.039-29.589-27.658-31.708l-4.342-0.292h-512c-17.673 0-32 14.327-32 32 0 16.2 12.039 29.589 27.658 31.708l4.342 0.292h512zM512 309.333c17.673 0 32-14.327 32-32 0-16.2-12.039-29.589-27.658-31.708l-4.342-0.292h-341.333c-17.673 0-32 14.327-32 32 0 16.2 12.039 29.589 27.658 31.708l4.342 0.292h341.333z" />
<glyph unicode="&#xe914;" glyph-name="user" d="M521.424 863.988c50.694 0 99.311-20.138 135.156-55.985 74.641-74.644 74.64-195.663-0.003-270.306s-195.663-74.642-270.306 0c-74.643 74.642-74.644 195.662-0.003 270.306 35.845 35.846 84.462 55.985 135.156 55.985zM521.424 799.988c-33.719 0-66.057-13.395-89.9-37.239-49.648-49.65-49.648-130.147 0.002-179.796s130.147-49.649 179.796 0c47.995 47.994 49.595 124.814 4.801 174.731l-4.799 5.066-5.237 4.948c-23.233 20.74-53.353 32.29-84.664 32.29zM521.408 413.952c-211.221 0-393.408-106.745-393.408-258.976v-45.472c-0.12-42.604 34.377-77.321 77.072-77.472h632.561c42.807 0.151 77.305 34.868 77.184 77.562v45.382c0 152.231-182.188 258.976-393.408 258.976zM521.408 349.952c180.524 0 329.408-87.232 329.408-194.976v-45.472c0.021-7.456-5.931-13.446-13.297-13.472h-632.335c-7.253 0.026-13.205 6.016-13.184 13.382v45.562c0 107.744 148.884 194.976 329.408 194.976z" />
<glyph unicode="&#xe915;" glyph-name="search" d="M628.2 744.468c104.949-104.949 111.545-271.008 19.788-383.638l228.126-231.263c12.412-12.581 12.274-32.842-0.307-45.254-11.438-11.283-29.222-12.195-41.686-2.815l-3.568 3.123-228.199 231.362c-112.534-88.437-275.966-80.79-379.697 22.942-111.988 111.988-111.988 293.556 0 405.544s293.556 111.988 405.544 0zM267.911 699.213c-86.994-86.994-86.994-228.040 0-315.034 85.96-85.96 224.692-86.982 311.907-3.067 0.363 0.673 0.891 1.232 1.442 1.775l2.12 1.838 7.015 7.267c77.061 84.781 77.061 214.626 0 299.407l-7.45 7.813-7.813 7.45c-87.431 79.469-222.785 76.985-307.221-7.45z" />
<glyph unicode="&#xe916;" glyph-name="profile" d="M806.158 742.156c162.458-162.458 162.458-425.855 0-588.312s-425.855-162.458-588.312 0c-162.458 162.458-162.458 425.855 0 588.312s425.855 162.458 588.312 0zM512 224c-71.91 0-139.754-25.217-193.631-69.985 117.098-77.345 270.218-77.336 387.315-0.021l-0.527 0.441c-53.808 44.502-121.467 69.566-193.157 69.566zM263.101 696.901c-137.465-137.464-137.465-360.338 0-497.802l4.529-4.328c66.66 59.444 152.841 93.229 244.369 93.229 91.534 0 177.73-33.789 244.402-93.228l4.501 4.327c134.601 134.6 137.405 351.088 8.412 489.101l-8.413 8.701-8.701 8.413c-138.012 128.992-354.5 126.188-489.101-8.413zM619.496 627.474c59.368-59.368 59.368-155.623 0-214.991s-155.623-59.368-214.991 0c-59.368 59.368-59.368 155.623 0 214.991s155.623 59.368 214.991 0zM449.76 582.219c-34.374-34.374-34.374-90.107 0-124.481s90.107-34.374 124.481 0c32.656 32.656 34.288 84.587 4.898 119.17l-4.898 5.311-5.311 4.898c-34.583 29.39-86.514 27.757-119.17-4.898z" />
<glyph unicode="&#xe917;" glyph-name="mobile" d="M667.916 799.996c28.924 0.452 56.843-10.607 77.613-30.742s32.689-47.698 33.137-77.115v0-531.436c-0.931-60.209-50.481-108.273-110.208-107.369v0l-312.435 0.004c-60.209-0.907-109.76 47.156-110.69 107.858v0 531.436c0.931 60.209 50.481 108.273 110.208 107.369v0zM668.916 736.009l-46.751 0.003-0.034-34.061c1.898-27.309-17.122-51.288-45.638-56.23l-5.826-0.73-119.944 0.107c-27.283 2.234-48.127 24.646-49.021 49.613l0.091 5.022v36.279l-46.733-0.003c-23.217 0.344-42.598-16.93-45.39-39.059l-0.34-4.812v-530.452c0.383-24.875 20.854-44.732 46.212-44.354v0l313.4-0.009c24.875-0.37 45.347 19.488 45.73 43.87v0 530.452c-0.184 11.95-5.108 23.337-13.689 31.656s-20.116 12.888-32.066 12.707v0zM619.583 335.016c12.229-12.759 11.798-33.016-0.961-45.245-59.628-57.148-153.701-57.148-213.329 0-12.759 12.229-13.19 32.485-0.961 45.245s32.485 13.19 45.245 0.961c34.872-33.422 89.889-33.422 124.762 0 12.759 12.229 33.016 11.798 45.245-0.961zM525.013 534.528c16.2 0 29.589-12.039 31.708-27.658l0.292-4.342-0.002-88.859c-0.176-15.344-6.468-29.984-17.48-40.671-9.439-9.161-21.676-14.768-34.271-16.009l-6.316-0.253h-13.013c-17.673 0-32 14.327-32 32 0 16.2 12.039 29.589 27.658 31.708l4.342 0.292h7.040l0.043 81.792c0 16.2 12.039 29.589 27.658 31.708l4.342 0.292zM394.667 534.528c16.2 0 29.589-12.039 31.708-27.658l0.292-4.342v-37.931c0-17.673-14.327-32-32-32-16.2 0-29.589 12.039-31.708 27.658l-0.292 4.342v37.931c0 17.673 14.327 32 32 32zM629.333 534.528c16.2 0 29.589-12.039 31.708-27.658l0.292-4.342v-37.931c0-17.673-14.327-32-32-32-16.2 0-29.589 12.039-31.708 27.658l-0.292 4.342v37.931c0 17.673 14.327 32 32 32zM558.208 736.013h-92.459l-0.043-27.021 92.501-0.085v27.106z" />
<glyph unicode="&#xe918;" glyph-name="user-heart" d="M426.552 480.387c62.224 0.221 123.979-10.285 182.562-31.018 34.507 18.971 74.074 29.998 116.22 30.631 135.494 0 245.333-109.839 245.333-245.333 0-132.343-104.79-240.211-235.923-245.156l-9.41-0.177-9.41 0.177c-89.243 3.366-166.284 54.405-206.397 128.534l-381.526 0.014c-39.175 0-71.304 30.17-74.419 68.543l-0.248 6.124v42.667c0 144.242 173.037 244.995 373.218 244.995zM725.815 416.004c-33.496-0.504-64.823-9.913-91.718-25.948-2.564-2.387-5.524-4.257-8.704-5.616-48.418-32.581-80.453-87.483-81.393-149.773 0-24.939 5.034-48.702 14.142-70.328 0.404-0.559 0.694-1.186 0.964-1.824l0.805-2.237c27.262-60.529 86.769-103.402 156.636-106.735l8.786-0.166 8.786 0.166c93.156 4.444 167.894 79.182 172.338 172.338l0.209 8.786c0 100.148-81.186 181.337-180.852 181.337zM768.153 341.325c50.706-1.19 91.278-42.479 91.58-93.389 0-65.064-97.607-141.269-134.4-141.269s-134.399 76.206-134.399 141.459c0.301 50.719 40.873 92.008 91.797 93.203 12.616 0.21 24.97-2.309 36.286-7.221v0l6.317-3.057 6.344 3.057c9.074 3.929 18.83 6.326 28.885 7.019v0zM766.869 277.338c-6.77 0.113-13.258-2.704-17.799-7.726v0l-3.36-3.221c-12.957-10.735-32.468-9.662-44.114 3.221v0l-2.945 2.743c-4.202 3.289-9.438 5.073-14.854 4.983v0l-4.087-0.407c-12.631-2.136-22.525-12.193-24.441-24.731v0l-0.336-4.264c0-13.881 13.711-32.816 38.205-51.94 9.915-7.741 20.765-14.885 31.332-20.94v0l0.863-0.464 11.479 6.864 10.534 7.016 10.182 7.524c24.494 19.123 38.205 38.059 38.205 51.75-0.096 16.107-12.98 29.218-28.865 29.592zM426.667 416.384c-165.756 0-302.967-77.697-309.118-174.228l-0.215-6.764v-42.667c0-5.049 3.509-9.279 8.221-10.385l2.446-0.282 357.73-0.018c-3.75 17.098-5.726 34.868-5.726 53.108 0.968 64.287 26.292 122.638 67.213 166.242-39.261 10.079-79.765 15.14-120.55 14.994zM554.636 853.648c51.77-51.761 67.261-129.611 39.248-197.247s-94.011-111.737-167.218-111.737c-73.207 0-139.206 44.101-167.218 111.737s-12.522 145.486 39.248 197.247c70.679 70.667 185.26 70.667 255.939 0zM343.948 808.389c-33.464-33.458-43.477-83.78-25.37-127.499s60.768-72.226 108.088-72.226c47.321 0 89.982 28.506 108.088 72.226 17.042 41.148 9.175 88.144-19.709 121.425l-5.777 6.176-5.739 5.371c-45.955 40.127-115.8 38.303-159.583-5.472z" />
<glyph unicode="&#xe919;" glyph-name="list" d="M693.333 448l9.254-0.197c113.528-4.845 204.079-98.416 204.079-213.136 0-117.821-95.513-213.333-213.333-213.333s-213.333 95.513-213.333 213.333c0 114.72 90.552 208.291 204.079 213.136l9.254 0.197zM693.333 384l-8.194-0.221c-78.664-4.254-141.14-69.387-141.14-149.112 0-82.475 66.859-149.333 149.333-149.333s149.333 66.859 149.333 149.333c0 79.725-62.476 144.859-141.14 149.112l-8.194 0.221zM341.333 160c17.673 0 32-14.327 32-32 0-16.2-12.039-29.589-27.658-31.708l-4.342-0.292h-170.667c-17.673 0-32 14.327-32 32 0 16.2 12.039 29.589 27.658 31.708l4.342 0.292h170.667zM786.344 292.553c11.369-11.352 12.415-29.129 3.129-41.664l-3.096-3.591-88.021-88.149c-11.368-11.385-29.174-12.415-41.708-3.096l-3.59 3.106-52.779 52.907c-12.482 12.512-12.457 32.773 0.055 45.255 11.374 11.347 29.153 12.358 41.67 3.048l3.585-3.103 30.124-30.195 65.377 65.448c12.488 12.506 32.749 12.521 45.255 0.033zM341.333 373.333c17.673 0 32-14.327 32-32 0-16.2-12.039-29.589-27.658-31.708l-4.342-0.292h-170.667c-17.673 0-32 14.327-32 32 0 16.2 12.039 29.589 27.658 31.708l4.342 0.292h170.667zM853.333 586.667c17.673 0 32-14.327 32-32 0-16.2-12.039-29.589-27.658-31.708l-4.342-0.292h-682.667c-17.673 0-32 14.327-32 32 0 16.2 12.039 29.589 27.658 31.708l4.342 0.292h682.667zM853.333 800c17.673 0 32-14.327 32-32 0-16.2-12.039-29.589-27.658-31.708l-4.342-0.292h-682.667c-17.673 0-32 14.327-32 32 0 16.2 12.039 29.589 27.658 31.708l4.342 0.292h682.667z" />
<glyph unicode="&#xe91a;" glyph-name="add-user" d="M426.552 480.387c62.224 0.221 123.979-10.285 182.562-31.018 34.507 18.971 74.074 29.998 116.22 30.631 135.494 0 245.333-109.839 245.333-245.333 0-132.343-104.79-240.211-235.923-245.156l-9.41-0.177-9.41 0.177c-89.243 3.366-166.284 54.405-206.397 128.534l-381.526 0.014c-39.175 0-71.304 30.17-74.419 68.543l-0.248 6.124v42.667c0 144.242 173.037 244.995 373.218 244.995zM725.815 416.004c-33.496-0.504-64.823-9.913-91.718-25.948-2.564-2.387-5.524-4.257-8.704-5.616-48.418-32.581-80.453-87.483-81.393-149.773 0-24.939 5.034-48.702 14.142-70.328 0.404-0.559 0.694-1.186 0.964-1.824l0.805-2.237c27.262-60.529 86.769-103.402 156.636-106.735l8.786-0.166 8.786 0.166c93.156 4.444 167.894 79.182 172.338 172.338l0.209 8.786c0 100.148-81.186 181.337-180.852 181.337zM725.333 352c16.2 0 29.589-12.039 31.708-27.658l0.292-4.342v-53.309l53.333-0.024c17.673 0 32-14.327 32-32 0-16.2-12.039-29.589-27.658-31.708l-4.342-0.292-53.333 0.024v-53.357c0-17.673-14.327-32-32-32-16.2 0-29.589 12.039-31.708 27.658l-0.292 4.342v53.357l-53.333-0.024c-17.673 0-32 14.327-32 32 0 16.2 12.039 29.589 27.658 31.708l4.342 0.292 53.333 0.024v53.309c0 17.673 14.327 32 32 32zM426.667 416.384c-165.756 0-302.967-77.697-309.118-174.228l-0.215-6.764v-42.667c0-5.049 3.509-9.279 8.221-10.385l2.446-0.282 357.73-0.018c-3.75 17.098-5.726 34.868-5.726 53.108 0.968 64.287 26.292 122.638 67.213 166.242-39.261 10.079-79.765 15.14-120.55 14.994zM554.636 853.648c51.77-51.761 67.261-129.611 39.248-197.247s-94.011-111.737-167.218-111.737c-73.207 0-139.206 44.101-167.218 111.737s-12.522 145.486 39.248 197.247c70.679 70.667 185.26 70.667 255.939 0zM343.948 808.389c-33.464-33.458-43.477-83.78-25.37-127.499s60.768-72.226 108.088-72.226c47.321 0 89.982 28.506 108.088 72.226 17.042 41.148 9.175 88.144-19.709 121.425l-5.777 6.176-5.739 5.371c-45.955 40.127-115.8 38.303-159.583-5.472z" />
<glyph unicode="&#xe91b;" glyph-name="help" d="M717.432 809.679c10.238 5.754 21.525 9.068 33.25 9.638 18.761 0.911 37.085-5.282 51.348-17.15l5.151-4.713 54.183-54.184c15.084-14.91 23.115-35.53 22.090-56.714-0.575-11.872-3.964-23.293-9.706-33.377 72.285-127.243 72.252-283.355-0.045-410.611 5.681-10.073 9.040-21.439 9.613-33.251 0.911-18.761-5.282-37.085-17.15-51.348l-4.713-5.151-54.254-54.254c-14.902-14.982-35.454-22.949-56.56-21.924-11.828 0.574-23.21 3.942-33.275 9.658-127.295-72.382-283.491-72.366-410.797-0.020-10.040-5.653-21.422-9.021-33.25-9.595-18.761-0.911-37.085 5.282-51.348 17.15l-5.151 4.713-54.183 54.184c-15.084 14.91-23.115 35.53-22.090 56.714 0.573 11.838 3.944 23.227 9.656 33.29-72.286 127.31-72.253 283.463 0.076 410.742-5.705 10.030-9.064 21.396-9.638 33.208-0.911 18.761 5.282 37.085 17.15 51.348l4.713 5.151 54.166 54.165c14.911 15.109 35.549 23.157 56.753 22.131 11.866-0.574 23.281-3.96 33.359-9.693 127.254 72.256 283.387 72.216 410.651-0.106zM422.16 218.952l-69.704-84.709c100.167-50.973 218.908-50.982 319.081-0.026l-69.801 84.761c-57.596-22.542-121.975-22.551-179.576-0.026zM693.445 282.009l-7.58-7.915c-8.626-8.622-17.733-16.47-27.234-23.544l87.375-106.084c1.911-2.336 4.723-3.754 7.739-3.9 2.010-0.098 3.985 0.376 5.727 1.354l2.414 1.839 54.376 54.376c2.14 2.129 3.278 5.065 3.132 8.080-0.11 2.261-0.934 4.408-2.357 6.173l-1.618 1.627-105.996 87.303c-4.947-6.639-10.273-13.085-15.977-19.308zM314.44 301.275l-103.138-84.866c-0.823-0.77-1.693-1.504-2.61-2.195l-0.297-0.105c-2.351-1.912-3.777-4.733-3.924-7.759-0.098-2.018 0.38-3.999 1.386-5.766l1.901-2.467 54.376-54.376c2.129-2.14 5.065-3.278 8.080-3.132 2.261 0.11 4.408 0.934 6.173 2.357l1.627 1.618 87.228 105.935c-9.517 7.082-18.638 14.941-27.277 23.576-8.613 8.609-16.455 17.698-23.525 27.181zM511.915 630.182c-48.328 0-94.674-19.216-128.824-53.413-13.132-13.15-23.834-27.808-32.107-43.415-0.391-1.098-0.953-2.131-1.577-3.138-34.559-68.296-23.271-153.81 33.802-210.857 71.092-71.059 186.319-71.059 257.411 0 68.798 68.767 71.067 178.898 6.77 250.393l-6.652 7.018-7.501 7.097c-33.28 29.747-76.446 46.315-121.323 46.315zM825.802 607.373l-84.696-69.602c22.511-57.619 22.476-121.993-0.088-179.573l84.701-69.777c50.949 100.125 50.977 218.807 0.083 318.952zM198.195 288.549l84.632 69.605c-22.616 57.676-22.629 122.169-0.033 179.855l-84.574 69.535c-50.944-100.144-50.953-218.845-0.026-318.995zM753.786 755.392c-2.261-0.11-4.408-0.934-6.173-2.357l-1.627-1.618-87.16-105.905c6.525-4.857 12.83-10.052 18.885-15.574l8.241-7.901c8.638-8.647 16.498-17.776 23.582-27.299l102.946 84.687c0.996 0.947 2.062 1.838 3.198 2.667 2.278 1.711 3.705 4.532 3.851 7.559 0.098 2.018-0.38 3.999-1.386 5.766l-1.901 2.467-54.376 54.376c-2.129 2.14-5.065 3.278-8.080 3.132zM270.329 755.553c-2.272 0.11-4.498-0.509-6.431-1.8l-1.825-1.512-54.376-54.376c-2.14-2.129-3.278-5.065-3.132-8.080 0.11-2.261 0.934-4.408 2.356-6.172l1.616-1.625 105.832-87.114c7.045 9.459 14.857 18.526 23.437 27.118 8.585 8.597 17.74 16.493 27.377 23.652l-84.273 102.445c-1.165 1.185-2.252 2.474-3.244 3.866l0.429-0.332c-1.912 2.354-4.735 3.783-7.764 3.93zM352.585 761.802l69.516-84.597c28.346 11.114 58.778 16.977 89.814 16.977 31.104 0 61.6-5.889 89.998-17.049l69.667 84.564c-100.134 50.971-218.835 51.006-318.995 0.105z" />
<glyph unicode="&#xe91c;" glyph-name="bubble" d="M597.333 906.667c205.283 0 373.33-151.578 373.33-341.378-1.512-102.657-50.508-198.324-131.81-259.577l-4.72-3.376v-104.661c0-22.223-21.862-37.214-42.116-30.371l-4.023 1.664-124.613 61.39-4.679-0.847c-38.377-5.898-77.363-6.189-115.738-0.903-0.757-19.046-3.853-38.281-9.381-57.263-29.018-99.646-118.315-169.183-221.243-173.597l-5.758-0.14-4.342-0.297c-30.7-0.032-61.083 5.8-89.526 17.14l-1.942 0.823-118.792-25.243c-21.195-4.502-40.174 12.808-38.573 33.632l0.6 4.206 24.797 119.074-3.692 9.553c-32.494 89.415-9.331 190.212 59.836 256.479l7.874 7.219c28.265 24.792 61.077 42.001 95.672 51.414-9.587 30.357-14.486 62.117-14.496 94.151 0 189.328 168.050 340.907 373.333 340.907zM185.026 372.081c-59.239-51.96-77.071-136.785-43.768-208.199 2.19-4.696 3.196-9.828 2.966-14.954l-0.643-5.107-16.904-80.973 80.776 17.136c5.077 1.078 10.313 0.9 15.263-0.483l4.838-1.784c20.043-9.286 41.616-14.726 63.6-16.074l8.494-0.246 2.336 0.128c75.879 0.025 142.973 48.276 167.512 119.406l2.641 8.307c22.031 75.655-8.518 156.772-74.983 199.099s-152.89 35.703-212.128-16.257zM203.285 268.791c5.461 0 10.786-1.308 15.556-3.751l5.102-3.232 3.576-3.113c13.249-13.359 13.191-34.92-0.132-48.206s-34.883-13.286-48.206 0c-13.322 13.286-13.381 34.847-0.132 48.206 6.409 6.462 15.133 10.097 24.235 10.097zM299.072 268.791c5.461 0 10.786-1.308 15.556-3.751l5.102-3.232 3.576-3.113c13.249-13.359 13.191-34.92-0.132-48.206s-34.883-13.286-48.206 0c-13.322 13.286-13.381 34.847-0.132 48.206 6.409 6.462 15.133 10.097 24.235 10.097zM395.285 268.791c5.461 0 10.786-1.308 15.556-3.751l5.102-3.232 3.576-3.113c13.249-13.359 13.191-34.92-0.132-48.206s-34.883-13.286-48.206 0c-13.322 13.286-13.381 34.847-0.132 48.206 6.409 6.462 15.133 10.097 24.235 10.097zM597.333 842.667c-171.325 0-309.333-124.481-309.333-276.897 0.009-29.314 5.16-58.344 15.165-85.784 44.457-0.134 88.987-12.586 128.368-37.665 54.301-34.581 90.989-88.186 105.156-147.786 41.402-7.732 83.949-7.542 125.41 0.515 5.49 1.067 11.138 0.672 16.389-1.11l3.855-1.595 87.792-43.256v69.973c0 9.302 4.041 18.060 10.932 24.086l3.678 2.775c74.874 48.475 120.614 131.122 121.924 219.837 0 152.426-138.008 276.907-309.333 276.907zM597.333 460.459l4.549-0.283c17.882-2.238 31.717-17.495 31.717-35.984 0-20.030-16.237-36.267-36.267-36.267s-36.267 16.237-36.267 36.267c0 18.489 13.835 33.746 31.717 35.984l4.549 0.283zM597.504 740.779c55.588 0 100.651-45.063 100.63-101.803-1.238-34.337-20.917-65.332-51.394-81.022-9.071-4.698-15.305-13.36-16.987-23.269l-0.877-8.645c-2.648-15.538-16.437-27.116-32.628-26.566-17.663 0.6-31.495 15.405-30.896 33.067 1.181 34.788 21.044 66.231 52.023 82.277 9.973 5.134 16.397 15.252 16.78 25.309 0 20.242-16.409 36.651-36.651 36.651-18.685 0-34.104-13.982-36.365-32.053l-0.286-4.597c0-17.673-14.327-32-32-32s-32 14.327-32 32c0 55.588 45.063 100.651 100.651 100.651z" />
<glyph unicode="&#xe91d;" glyph-name="checkbox" d="M768 821.333h-512c-64.801 0-117.333-52.532-117.333-117.333v-512c0-64.801 52.532-117.333 117.333-117.333h512c64.801 0 117.333 52.532 117.333 117.333v512c0 64.801-52.532 117.333-117.333 117.333zM256 757.333h512c29.455 0 53.333-23.878 53.333-53.333v-512c0-29.455-23.878-53.333-53.333-53.333h-512c-29.455 0-53.333 23.878-53.333 53.333v512c0 29.455 23.878 53.333 53.333 53.333z" />
<glyph unicode="&#xe91e;" glyph-name="checkbox-checked" d="M768 821.333c64.801 0 117.333-52.532 117.333-117.333v0-512c0-64.801-52.532-117.333-117.333-117.333v0h-512c-64.801 0-117.333 52.532-117.333 117.333v0 512c0 64.801 52.532 117.333 117.333 117.333v0zM768 757.333h-512c-29.455 0-53.333-23.878-53.333-53.333v0-512c0-29.455 23.878-53.333 53.333-53.333v0h512c29.455 0 53.333 23.878 53.333 53.333v0 512c0 29.455-23.878 53.333-53.333 53.333v0zM705.294 555.961c11.361-11.361 12.393-29.138 3.098-41.666l-3.098-3.589-213.333-213.333c-11.361-11.361-29.138-12.393-41.666-3.098l-3.589 3.098-128 128c-12.497 12.497-12.497 32.758 0 45.255 11.361 11.361 29.138 12.393 41.666 3.098l3.589-3.098 105.373-105.358 190.706 190.691c12.497 12.497 32.758 12.497 45.255 0z" />
<glyph unicode="&#xe91f;" glyph-name="menu" d="M902.85 237.097c21.703 2.355 43.169-7.44 55.554-25.809 13.511-20.039 13.511-46.271 0-66.31-12.385-18.369-33.852-28.164-55.554-25.809l-1.9 0.34-779.799-0.34c-17.537-1.903-34.921 4.128-47.483 16.205l-4.475 4.809-3.596 4.794c-13.511 20.039-13.511 46.271 0 66.31 12.385 18.369 33.852 28.164 55.554 25.809l1.602-0.254 780.098 0.254zM902.85 506.964c21.703 2.355 43.169-7.44 55.554-25.809 13.511-20.039 13.511-46.271 0-66.31-12.385-18.369-33.852-28.164-55.554-25.809l-1.9 0.34-779.799-0.34c-17.537-1.903-34.921 4.128-47.483 16.205l-4.475 4.809-3.596 4.794c-13.511 20.039-13.511 46.271 0 66.31 12.385 18.369 33.852 28.164 55.554 25.809l1.602-0.254 780.098 0.254zM115.403 776.786l5.472-0.252 779.48-0.129c31.869 2.969 60.482-18.523 67.016-49.224l0.962-5.861v-6.907c-3.701-31.792-30.657-55.329-59.736-55.465l-5.472 0.252-779.48 0.129c-31.869-2.969-60.482 18.523-67.016 49.224l-0.962 5.861v6.907c3.701 31.792 30.657 55.329 59.736 55.465z" />
<glyph unicode="&#xe920;" glyph-name="doctor-2" d="M555.307 735.296c-0.079-5.013-2.146-9.79-5.747-13.278s-8.44-5.404-13.453-5.324h-6.869v-7.296c0-10.604-8.596-19.2-19.2-19.2s-19.2 8.596-19.2 19.2v7.296h-6.688c-6.754-0.162-13.066 3.349-16.49 9.173s-3.425 13.046 0 18.87c3.425 5.824 9.736 9.335 16.49 9.173h6.773v5.931c0 10.604 8.596 19.2 19.2 19.2s19.2-8.596 19.2-19.2v-5.931h6.869c10.41 0.119 18.957-8.203 19.115-18.613v0zM711.691 60.544c-1.173-0.206-2.361-0.31-3.552-0.309-9.126-0.089-17.043 6.286-18.901 15.221l-45.344 236.736c-7.493 35.427-32.682 64.509-66.677 76.981v-78.507c18.678-6.771 31.031-24.614 30.795-44.48-0.019-4.983-2.030-9.752-5.583-13.246s-8.356-5.422-13.339-5.357c-10.437-0.16-19.030 8.166-19.2 18.603-0.264 6.088-5.277 10.889-11.371 10.889s-11.107-4.8-11.371-10.889c-0.421-10.343-8.929-18.51-19.28-18.51s-18.859 8.168-19.28 18.51c0.336 19.528 12.221 36.997 30.261 44.48v89.269c-8.963 1.468-18.033 2.182-27.115 2.133-12.574 0.003-25.112-1.346-37.397-4.021v-164.811c20.477-7.246 34.261-26.494 34.528-48.213-1.149-28.835-24.86-51.619-53.717-51.619s-52.568 22.784-53.717 51.619c0.267 21.719 14.051 40.967 34.528 48.213v151.104c-29.032-13.865-49.834-40.6-56.139-72.149l-41.013-214.741h254.869c6.754 0.162 13.066-3.349 16.49-9.173s3.425-13.046 0-18.87c-3.425-5.824-9.736-9.335-16.49-9.173h-277.931c-5.66-0.020-11.047 2.43-14.752 6.709-3.631 4.201-5.147 9.829-4.117 15.285l45.216 236.736c15.872 83.093 96.768 120.299 169.899 120.299v0c16.743-0.005 33.429-1.942 49.728-5.771 1.058-0.17 2.099-0.427 3.115-0.768 55.275-13.931 104.981-50.549 117.045-113.76l45.216-236.736c0.87-4.923-0.271-9.989-3.165-14.064s-7.303-6.821-12.237-7.621v0zM470.496 185.024c0.394 6.297-3.097 12.195-8.807 14.88s-12.479 1.61-17.077-2.71c-4.598-4.32-6.092-11.009-3.768-16.875s7.993-9.717 14.302-9.716c8.208-0.228 15.060 6.215 15.339 14.421h0.011zM371.936 688.491v85.792c0.908 34.784 29.779 62.281 64.565 61.493h150.955c34.791 0.794 63.668-26.705 64.576-61.493v-100.075c0 0-0.352-37.803-0.576-43.733-2.261-60.651-28.245-109.205-72.811-134.88-41.287-23.693-92.047-23.693-133.333 0-43.189 24.885-69.035 71.264-72.661 129.291-0.501 7.701-0.715 63.584-0.715 63.584v0.021zM613.141 633.024h-202.325c1.536-48.373 20.843-86.155 54.080-105.312 29.155-16.732 65-16.732 94.155 0 33.248 19.072 52.544 56.875 54.091 105.248v0.064zM410.304 670.24h203.36v104.043c-0.566 13.926-12.28 24.776-26.208 24.277h-150.955c-13.927 0.499-25.637-10.353-26.197-24.277v-104.043z" />
<glyph unicode="&#xe921;" glyph-name="filter" d="M777.472 821.333c59.57 0 107.861-48.291 107.861-107.861v0-114.464c-0.033-33.409-15.522-64.923-41.984-85.383v0l-162.816-125.529v-187.554c0.011-38.307-20.297-73.529-52.94-92.792v0l-6.691-3.636-121.563-60.782c-33.444-16.651-73.123-14.802-104.874 4.886s-51.046 54.409-50.999 91.728v0l-0.043 248.149-162.785 125.538c-24.432 18.858-39.523 47.187-41.7 77.729v0l-0.273 7.677v114.432c0 59.57 48.291 107.861 107.861 107.861v0zM777.899 544h-531.84l148.95-114.863c6.547-5.049 10.834-12.39 12.081-20.439l0.377-4.901v-263.891c-0.019-15.183 7.823-29.294 20.727-37.296s29.030-8.753 42.573-2.010v0l121.547 60.774c14.844 7.401 24.224 22.563 24.22 39.159v0 203.264c0 9.921 4.602 19.281 12.458 25.34v0l148.907 114.863zM777.472 757.333h-530.944c-24.224 0-43.861-19.637-43.861-43.861v0-105.472h618.667v105.472c0 22.609-17.106 41.223-39.082 43.604l-4.779 0.257z" />
<glyph unicode="&#xe922;" glyph-name="send" d="M561.049 762.47c27.709 14.835 61.736 10.767 85.166-10.182s31.266-54.311 19.549-83.656v0l-88.553-218.43 89.479-223.436c10.546-27.051 4.448-57.544-15.164-78.422v0l-4.764-4.641c-23.339-20.808-57.153-24.917-84.844-10.278v0l-468.743 248.809c-24.439 12.923-39.727 38.301-39.727 65.946l0.107-3.832c-0.131 1.15-0.201 2.319-0.206 3.503l0.272 4.344 0.095 2.321c2.137 25.141 16.896 47.681 39.414 59.588v0zM521.105 418.091l-355.712-1.707 426.484-226.404c3.207-1.695 6.986-1.653 10.102-0.023l2.194 1.517c3.384 3.017 4.537 7.82 2.998 11.772v0l-86.065 214.845zM853.35 352c17.673 0 32-14.327 32-32 0-16.2-12.039-29.589-27.658-31.708l-4.342-0.292h-68.25c-17.673 0-32 14.327-32 32 0 16.2 12.039 29.589 27.658 31.708l4.342 0.292h68.25zM896.051 480c17.673 0 32-14.327 32-32 0-16.2-12.039-29.589-27.658-31.708l-4.342-0.292h-110.95c-17.673 0-32 14.327-32 32 0 16.2 12.039 29.589 27.658 31.708l4.342 0.292h110.95zM601.362 706.098c-3.122 1.629-6.923 1.654-10.206-0.103v0l-425.081-225.61 354.987 1.707 85.328 210.427c1.346 3.372 0.892 7.131-1.077 10.048l-1.756 2.011zM938.701 608c17.673 0 32-14.327 32-32 0-16.2-12.039-29.589-27.658-31.708l-4.342-0.292h-153.6c-17.673 0-32 14.327-32 32 0 16.2 12.039 29.589 27.658 31.708l4.342 0.292h153.6z" />
<glyph unicode="&#xe923;" glyph-name="info" d="M512 864c225.202 0 409.321-179.169 415.833-404.214v0l0.167-11.786c0-225.202-179.169-409.321-404.214-415.833v0l-11.786-0.167c-225.202 0-409.321 179.169-415.833 404.214v0l-0.167 11.786c0 225.202 179.169 409.321 404.214 415.833v0zM512 800l-10.397-0.15c-189.996-5.5-341.606-161.297-341.606-351.387v0l0.154-10.86c5.5-189.996 161.297-341.606 351.387-341.606v0l10.86 0.154c189.996 5.5 341.606 161.297 341.606 351.387v0l-0.154 10.86c-5.5 189.996-161.297 341.603-351.85 341.603v0zM512 480c16.2 0 29.589-12.039 31.708-27.658l0.292-4.342v-213.333c0-17.673-14.327-32-32-32-16.2 0-29.589 12.039-31.708 27.658l-0.292 4.342v213.333c0 17.673 14.327 32 32 32zM511.957 650.667l4.979-0.287c21.234-2.462 37.73-20.477 37.73-42.38 0-23.561-19.105-42.667-42.667-42.667s-42.667 19.106-42.666 42.435c-0.16 22.098 16.527 40.316 37.962 42.647l4.661 0.252z" />
<glyph unicode="&#xe924;" glyph-name="phone" d="M190.293 637.197c27.197 0 53.279-10.806 72.493-30.025v0l41.822-41.786c16.281-16.845 24.98-39.606 24.081-63.016s-11.316-45.438-27.449-59.675v0l-26.297-26.226 3.979-8.439c41.47-84.041 109.528-152.029 192.953-193.098v0l8.508-3.988 29.275 29.218c14.151 14.18 32.799 22.839 52.598 24.588v0l7.472 0.329c22.537 0 44.149-8.965 60.046-24.894v0l41.357-41.357c19.278-19.227 30.127-45.325 30.162-72.552s-10.748-53.353-30.026-72.678v0l-23.233-23.187c-34.298-33.534-82.983-47.895-130.572-38.221-112.81 25.11-215.675 83.020-294.711 165.5-83.383 80.003-141.282 182.849-166.559 296.229-9.55 47.007 4.811 95.692 38.599 130.246v0l22.994 22.994c19.228 19.234 45.311 30.039 72.508 30.039zM190.293 573.197c-10.22 0-20.021-4.061-27.25-11.291v0l-22.744-22.741c-18.704-19.131-26.715-46.286-21.515-71.912 22.407-100.482 73.99-192.108 149.221-264.329 71.245-74.313 162.874-125.897 262.781-148.141 26.22-5.327 53.375 2.684 72.271 21.156v0l22.948 22.905c7.241 7.259 11.301 17.097 11.288 27.349s-4.099 20.080-11.388 27.35v0l-41.41 41.41c-3.914 3.922-9.227 6.126-14.768 6.126s-10.854-2.204-14.791-6.149v0l-32.289-32.286c-16.375-16.703-41.277-21.737-63.664-12.354-108.42 48.94-195.296 135.703-244.682 244.752-9.316 21.932-4.243 47.332 12.543 63.767v0l30.532 30.452c4.473 3.968 7.131 9.59 7.36 15.564s-1.991 11.784-5.753 15.683v0l-41.444 41.401c-7.226 7.228-17.027 11.288-27.247 11.288zM843.647 863.826c102.862-65.492 150.15-191.018 116.068-308.1-33.050-113.534-134.92-192.701-252.253-197.442l-6.464-0.141-4.342-0.297c-35.464-0.042-70.556 6.807-103.337 20.119l-2.13 0.916-139.061-29.553c-21.197-4.5-40.175 12.814-38.57 33.638l0.601 4.206 29.063 139.335c-43.853 105.104-18.42 226.138 63.748 304.444l8.405 7.686c91.666 80.419 225.41 90.681 328.272 25.189zM557.582 790.527c-70.282-61.658-91.431-162.306-51.91-247.037 2.191-4.697 3.197-9.832 2.967-14.96l-0.644-5.109-21.169-101.276 101.13 21.446c5.079 1.078 10.318 0.899 15.27-0.486l4.839-1.786c24.267-11.255 50.43-17.75 77.072-19.174l8.878-0.213 2.376 0.128c90.271 0.038 170.057 57.601 198.972 142.37l2.902 9.185c26.132 89.769-10.125 186.012-88.991 236.226s-181.411 42.346-251.693-19.313zM581.824 661.751c5.461 0 10.786-1.308 15.556-3.751l5.102-3.232 3.576-3.113c13.249-13.359 13.191-34.92-0.132-48.206s-34.883-13.286-48.206 0c-13.322 13.286-13.381 34.847-0.132 48.206 6.409 6.462 15.133 10.097 24.235 10.097zM693.013 661.751c5.461 0 10.786-1.308 15.556-3.751l5.102-3.232 3.576-3.113c13.249-13.359 13.191-34.92-0.132-48.206s-34.883-13.286-48.206 0c-13.322 13.286-13.381 34.847-0.132 48.206 6.409 6.462 15.133 10.097 24.235 10.097zM804.16 661.751c5.461 0 10.786-1.308 15.556-3.751l5.102-3.232 3.576-3.113c13.249-13.359 13.191-34.92-0.132-48.206s-34.883-13.286-48.206 0c-13.322 13.286-13.381 34.847-0.132 48.206 6.409 6.462 15.133 10.097 24.235 10.097z" />
<glyph unicode="&#xe925;" glyph-name="logout" d="M480 756.096c0 69.030 63.889 120.288 131.275 105.307v0l189.583-42.149c49.341-10.924 84.475-54.721 84.475-105.27v0-533.803c0-50.562-35.147-94.353-84.49-105.264v0l-189.605-42.153c-67.345-14.986-131.239 36.273-131.239 105.263v0zM170.667 309.333c16.2 0 29.589-12.039 31.708-27.658l0.292-4.342v-87.125c0-27.631 20.971-50.329 47.877-53.058l5.456-0.275h128c17.673 0 32-14.327 32-32 0-16.2-12.039-29.589-27.658-31.708l-4.342-0.292h-128c-62.419 0-113.427 48.696-117.119 110.184l-0.214 7.15v87.125c0 17.673 14.327 32 32 32zM597.386 798.928c-27.412 6.094-53.386-14.745-53.386-42.832v0-618.069c0-28.044 25.972-48.88 53.343-42.789v0l189.646 42.163c20.058 4.435 34.344 22.235 34.344 42.781v0 533.803c0 20.544-14.284 38.35-34.337 42.789v0zM317.705 559.059l3.589-3.098 85.333-85.333c1.087-1.087 2.097-2.253 3.019-3.487l-3.019 3.487c1.547-1.547 2.902-3.213 4.066-4.968 0.604-0.917 1.163-1.861 1.673-2.835 0.196-0.371 0.375-0.73 0.546-1.090 0.555-1.166 1.053-2.401 1.473-3.67 0.082-0.255 0.155-0.484 0.225-0.713 0.902-2.94 1.39-6.088 1.39-9.35 0-1.64-0.123-3.251-0.361-4.824-0.079-0.506-0.17-1.024-0.274-1.539-0.213-1.067-0.476-2.093-0.786-3.099-0.139-0.445-0.292-0.903-0.455-1.359-0.386-1.076-0.825-2.117-1.315-3.129-0.214-0.445-0.448-0.901-0.694-1.352-0.568-1.035-1.179-2.022-1.841-2.971-0.167-0.245-0.355-0.507-0.548-0.766-0.248-0.326-0.32-0.421-0.393-0.516l-2.705-3.073-85.333-85.333c-12.497-12.497-32.758-12.497-45.255 0-11.361 11.361-12.393 29.138-3.098 41.666l3.098 3.589 30.691 30.725-136.064-0.019c-17.673 0-32 14.327-32 32 0 16.2 12.039 29.589 27.658 31.708l4.342 0.292 136.064 0.019-30.691 30.687c-11.361 11.361-12.393 29.138-3.098 41.666l3.098 3.589c11.361 11.361 29.138 12.393 41.666 3.098zM640 523.52c16.2 0 29.589-12.039 31.708-27.658l0.292-4.342v-85.333c0-17.673-14.327-32-32-32-16.2 0-29.589 12.039-31.708 27.658l-0.292 4.342v85.333c0 17.673 14.327 32 32 32zM384 821.333c17.673 0 32-14.327 32-32 0-16.2-12.039-29.589-27.658-31.708l-4.342-0.292h-128c-27.631 0-50.329-20.971-53.058-47.877l-0.275-5.456v-85.333c0-17.673-14.327-32-32-32-16.2 0-29.589 12.039-31.708 27.658l-0.292 4.342v85.333c0 62.419 48.696 113.427 110.184 117.119l7.15 0.214h128z" />
<glyph unicode="&#xe926;" glyph-name="gift" d="M256 32c-39.164 0-71.303 30.181-74.419 68.544l-0.248 6.122v309.355l-10.667-0.021c-39.164 0-71.303 30.181-74.419 68.544l-0.248 6.122v85.333c0 39.164 30.181 71.303 68.544 74.419l6.122 0.248 165.668-0.057c-1.735 1.669-3.438 3.371-5.106 5.108-45.779 47.624-45.779 124.376 0.005 172.005 44.61 46.408 116.316 48.264 163.093 5.569l4.804-4.619 0.952-0.951c4.331-4.506 8.294-9.37 11.91-14.576 3.629 5.206 7.592 10.070 11.923 14.576l0.969 0.928 4.788 4.641c46.777 42.695 118.483 40.839 163.093-5.569 43.876-45.645 45.705-118.036 5.485-165.91l-5.479-6.095-5.198-5.030 165.76-0.021c39.164 0 71.303-30.181 74.419-68.544l0.248-6.122v-85.333c0-39.164-30.181-71.303-68.544-74.419l-6.122-0.248-10.667 0.021v-309.355c0-39.164-30.181-71.303-68.544-74.419l-6.122-0.248h-512zM245.333 106.667c0-5.039 3.518-9.276 8.225-10.384l2.442-0.282 224 0.021v319.979l-234.667 0.021v-309.355zM778.667 416.021l-234.667-0.021v-319.979l224-0.021c5.039 0 9.276 3.518 10.384 8.225l0.282 2.442v309.355zM480 586.667h-309.333c-5.039 0-9.276-3.518-10.384-8.225l-0.282-2.442v-85.333c0-5.039 3.518-9.276 8.225-10.384l2.442-0.282h309.333v106.667zM853.333 586.667h-309.333v-106.667h309.333c5.039 0 9.276 3.518 10.384 8.225l0.282 2.442v85.333c0 5.879-4.788 10.667-10.667 10.667zM574.518 787.504l-4.419-4.134-0.201-0.16-3.658-4.317c-9.807-12.9-16.637-33.406-19.952-59.635-2.684-21.24-2.898-44.138-1.422-66.466 37.756 5.456 76.908 21.405 101.754 47.266 21.976 22.862 21.976 60.456 0.005 83.312-19.867 20.668-50.77 22.046-72.108 4.134zM377.374 783.371c-20.506-21.332-21.873-55.503-4.101-78.547l4.107-4.765c22.587-23.509 56.998-38.828 91.403-45.521l10.279-1.716 0.237 2.592c1.29 21.495 0.992 43.436-1.587 63.846-3.314 26.228-10.144 46.735-19.952 59.635l-3.701 4.317-0.158 0.16c-21.286 22.144-55.241 22.144-76.527 0z" />
<glyph unicode="&#xe927;" glyph-name="loading1" d="M512 249.6c16.2 0 29.589-12.039 31.708-27.658l0.292-4.342v-153.6c0-17.673-14.327-32-32-32-16.2 0-29.589 12.039-31.708 27.658l-0.292 4.342v153.6c0 17.673 14.327 32 32 32zM694.025 310.739l3.589-3.098 108.373-108.373c12.497-12.497 12.497-32.758 0-45.255-11.361-11.361-29.138-12.393-41.666-3.098l-3.589 3.098-108.373 108.373c-12.497 12.497-12.497 32.758 0 45.255 11.361 11.361 29.138 12.393 41.666 3.098zM371.641 307.641c11.361-11.361 12.393-29.138 3.098-41.666l-3.098-3.589-108.373-108.373c-12.497-12.497-32.758-12.497-45.255 0-11.361 11.361-12.393 29.138-3.098 41.666l3.098 3.589 108.373 108.373c12.497 12.497 32.758 12.497 45.255 0zM281.6 480c17.673 0 32-14.327 32-32 0-16.2-12.039-29.589-27.658-31.708l-4.342-0.292h-153.6c-17.673 0-32 14.327-32 32 0 16.2 12.039 29.589 27.658 31.708l4.342 0.292h153.6zM896 480c17.673 0 32-14.327 32-32 0-16.2-12.039-29.589-27.658-31.708l-4.342-0.292h-153.6c-17.673 0-32 14.327-32 32 0 16.2 12.039 29.589 27.658 31.708l4.342 0.292h153.6zM259.678 745.086l3.589-3.098 108.373-108.373c12.497-12.497 12.497-32.758 0-45.255-11.361-11.361-29.138-12.393-41.666-3.098l-3.589 3.098-108.373 108.373c-12.497 12.497-12.497 32.758 0 45.255 11.361 11.361 29.138 12.393 41.666 3.098zM805.987 741.987c11.361-11.361 12.393-29.138 3.098-41.666l-3.098-3.589-108.373-108.373c-12.497-12.497-32.758-12.497-45.255 0-11.361 11.361-12.393 29.138-3.098 41.666l3.098 3.589 108.373 108.373c12.497 12.497 32.758 12.497 45.255 0zM512 864c16.2 0 29.589-12.039 31.708-27.658l0.292-4.342v-153.6c0-17.673-14.327-32-32-32-16.2 0-29.589 12.039-31.708 27.658l-0.292 4.342v153.6c0 17.673 14.327 32 32 32z" />
<glyph unicode="&#xe928;" glyph-name="clock-3" d="M482.414 834.46c2.937-17.427-8.809-33.936-26.236-36.874-147.756-24.905-263.521-140.669-288.426-288.426-32.292-191.586 96.84-373.074 288.426-405.366s373.074 96.84 405.366 288.426c2.937 17.427 19.446 29.174 36.874 26.236s29.174-19.446 26.236-36.874c-38.167-226.44-252.673-379.065-479.114-340.898s-379.066 252.673-340.898 479.114c29.436 174.637 166.261 311.463 340.898 340.898 17.427 2.937 33.936-8.809 36.874-26.236zM495.317 693.333c16.2 0 29.589-12.039 31.708-27.658l0.292-4.342-0.018-198.016h155.368c16.2 0 29.589-12.039 31.708-27.658l0.292-4.342c0-16.2-12.039-29.589-27.658-31.708l-4.342-0.292h-187.349c-16.2 0-29.589 12.039-31.708 27.658l-0.292 4.342v230.016c0 17.673 14.327 32 32 32zM904.486 595.739c9.118-24.496 15.886-49.804 20.214-75.582 2.926-17.429-8.831-33.93-26.26-36.856s-33.93 8.831-36.856 26.26c-3.656 21.777-9.374 43.158-17.077 63.853-6.165 16.563 2.264 34.988 18.827 41.153s34.988-2.264 41.153-18.827zM779.973 771.424c20.199-16.684 38.766-35.251 55.45-55.45 11.255-13.626 9.333-33.796-4.293-45.051s-33.796-9.333-45.051 4.293c-14.101 17.071-29.793 32.763-46.864 46.864-13.626 11.255-15.548 31.425-4.293 45.051s31.425 15.548 45.051 4.293zM579.837 861.13l4.331-0.432c25.785-4.338 51.097-11.123 75.595-20.263 16.558-6.178 24.973-24.609 18.795-41.167s-24.609-24.973-41.167-18.795c-20.688 7.719-42.065 13.449-63.84 17.113-17.428 2.932-29.18 19.437-26.248 36.866 2.688 15.976 16.781 27.182 32.535 26.68z" />
<glyph unicode="&#xe929;" glyph-name="call" d="M655.179 798.738l-49.962-50.133c-18.757-19.44-28.578-45.183-27.558-71.655s12.792-51.383 32.597-68.979l33.636-33.802-7.904-16.786c-21.914-44.377-50.48-85.606-84.631-122.029l-11.325-11.631-2.084-1.843-13.435-13.072c-36.438-34.168-77.715-62.777-122.499-84.904l-16.307-7.659-38.599 38.585c-37.491 37.48-98.259 37.48-135.747 0.003l-50.051-50.051c-45.808-45.822-45.808-120.094-0.003-165.913l27.779-27.779c40.078-39.303 96.72-56.078 151.43-45.003 135.744 30.251 258.964 99.629 354.794 199.55 98.976 94.885 168.354 218.104 198.474 353.236 11.206 55.323-5.57 111.965-44.652 151.82l-28.043 28.045c-45.819 45.805-120.091 45.805-165.909 0zM775.84 753.476l27.815-27.815c23.998-24.475 34.393-59.574 27.53-93.477-27.246-122.208-90.303-234.202-181.122-321.302-88.046-91.764-200.039-154.821-322.86-182.198-33.29-6.733-68.389 3.663-93.087 27.881l-27.553 27.556c-20.817 20.823-20.817 54.583 0.003 75.41l50.045 50.045c12.493 12.489 32.749 12.489 45.245-0.003l38.397-38.397c18.145-18.544 46.159-24.168 70.375-13.929l17.531 8.222c52.098 25.5 99.692 58.475 141.528 97.968l11.092 10.879 2.552 2.14c50.019 49.547 90.444 107.917 119.236 172.165 10.511 24.84 4.887 52.854-13.903 71.243l-34.486 34.617c-8.191 7.356-12.218 15.878-12.567 24.935s3.011 17.863 9.303 24.386l49.555 49.718c20.785 20.778 54.545 20.778 75.371-0.042z" />
</font>
</defs>
</svg>
